{"title":"Rang Rasiya (2014) - 1CD - PreDVD-Rip - Hindi - x264 - MP3 - Maf","uid":11412748,"size":743375024,"categoryP":"video","categoryS":"movies_dvdr","magnet":"?xt=urn:btih:b2cc1a417a3390cf4a9b568dc4cda402388dd60a&amp;dn=Rang+Rasiya+%282014%29+-+1CD+-+PreDVD-Rip+-+Hindi+-+x264+-+MP3+-+Maf&amp;tr=udp%3A%2F%2Ftracker.openbittorrent.com%3A80&amp;tr=udp%3A%2F%2Fopen.demonii.com%3A1337&amp;tr=udp%3A%2F%2Ftracker.coppersurfer.tk%3A6969&amp;tr=udp%3A%2F%2Fexodus.desync.com%3A6969","seeders":40,"leechers":5,"uploader":"inovai","files":3,"time":1415547483,"description":"Rang Rasiya (2014) - 1CD - PreDVD-Rip - Hindi - x264 - MP3 - Mafiaking - Team TellyTNT\n\nCover:\n  &lt;a href=&quot;\nhttp://forum.primetimeshow.in/viewtopic.php?f=7&amp;t=811&quot; rel=&quot;nofollow&quot; target=&quot;_NEW&quot;&gt;\nhttp://forum.primetimeshow.in/viewtopic.php?f=7&amp;t=811&lt;/a&gt;\n\nScreenshots:\n  &lt;a href=&quot;\nhttp://m.primetimeshow.in/share-BB29_545E53A2.html&quot; rel=&quot;nofollow&quot; target=&quot;_NEW&quot;&gt;\nhttp://m.primetimeshow.in/share-BB29_545E53A2.html&lt;/a&gt;\n  &lt;a href=&quot;\nhttp://m.primetimeshow.in/share-4FE6_545E53A2.html&quot; rel=&quot;nofollow&quot; target=&quot;_NEW&quot;&gt;\nhttp://m.primetimeshow.in/share-4FE6_545E53A2.html&lt;/a&gt;\n  &lt;a href=&quot;\nhttp://m.primetimeshow.in/share-C059_545E53A2.html&quot; rel=&quot;nofollow&quot; target=&quot;_NEW&quot;&gt;\nhttp://m.primetimeshow.in/share-C059_545E53A2.html&lt;/a&gt;\n  &lt;a href=&quot;\nhttp://m.primetimeshow.in/share-4B9D_545E53A2.html&quot; rel=&quot;nofollow&quot; target=&quot;_NEW&quot;&gt;\nhttp://m.primetimeshow.in/share-4B9D_545E53A2.html&lt;/a&gt;\n  &lt;a href=&quot;\nhttp://m.primetimeshow.in/share-A777_545E53A2.html&quot; rel=&quot;nofollow&quot; target=&quot;_NEW&quot;&gt;\nhttp://m.primetimeshow.in/share-A777_545E53A2.html&lt;/a&gt;\n\nGeneral\nUnique ID : 231969354781761720905795576050687927220 (0xAE83AC3325944278A54E983AB893E3B4)\nComplete name : Rang Rasiya (2014) - 1CD - PreDVD-Rip - Hindi - x264 - MP3 - Mafiaking - Team TellyTNT.mkv\nFormat : Matroska\nFormat version : Version 4 / Version 2\nFile size : 703 MiB\nDuration : 1h 52mn\nOverall bit rate : 874 Kbps\nMovie name : Rang Rasiya (2014) - 1CD - PreDVD-Rip - Hindi - x264 - MP3 - Mafiaking - Team TellyTNT\nEncoded date : UTC 2014-11-09 07:18:50\nWriting application : mkvmerge v7.0.0 ('Where We Going') 64bit built on Jun 9 2014 15:16:27\nWriting library : libebml v1.3.0 + libmatroska v1.4.1\n\n\nVideo\nID : 1\nFormat : AVC\nFormat/Info : Advanced Video Codec\nFormat profile : &lt;a class=&quot;__cf_email__&quot; href=&quot;/cdn-cgi/l/email-protection&quot; data-cfemail=&quot;8dc5e4eae5cdc1b9a3bc&quot;&gt;[email&amp;#160;protected]&lt;/a&gt;&lt;script cf-hash='f9e31' type=&quot;text/javascript&quot;&gt;\n/* &lt;![CDATA[ */!function(){try{var t=&quot;currentScript&quot;in document?document.currentScript:function(){for(var t=document.getElementsByTagName(&quot;script&quot;),e=t.length;e--;)if(t[e].getAttribute(&quot;cf-hash&quot;))return t[e]}();if(t&amp;&amp;t.previousSibling){var e,r,n,i,c=t.previousSibling,a=c.getAttribute(&quot;data-cfemail&quot;);if(a){for(e=&quot;&quot;,r=parseInt(a.substr(0,2),16),n=2;a.length-n;n+=2)i=parseInt(a.substr(n,2),16)^r,e+=String.fromCharCode(i);e=document.createTextNode(e),c.parentNode.replaceChild(e,c)}}}catch(u){}}();/* ]]&gt; */&lt;/script&gt;\nFormat settings, CABAC : Yes\nFormat settings, ReFrames : 4 frames\nCodec ID : V_MPEG4/ISO/AVC\nDuration : 1h 52mn\nBit rate : 776 Kbps\nWidth : 640 pixels\nHeight : 272 pixels\nDisplay aspect ratio : 2.35:1\nFrame rate mode : Constant\nFrame rate : 25.000 fps\nColor space : YUV\nChroma subsampling : 4:2:0\nBit depth : 8 bits\nScan type : Progressive\nBits/(Pixel*Frame) : 0.178\nStream size : 612 MiB (87%)\nTitle : Mafiaking\nLanguage : Hindi\nDefault : Yes\nForced : No\n\n\nAudio\nID : 2\nFormat : MPEG Audio\nFormat version : Version 1\nFormat profile : Layer 3\nMode : Joint stereo\nMode extension : MS Stereo\nCodec ID : A_MPEG/L3\nCodec ID/Hint : MP3\nDuration : 1h 52mn\nBit rate mode : Constant\nBit rate : 96.0 Kbps\nChannel(s) : 2 channels\nSampling rate : 32.0 KHz\nCompression mode : Lossy\nStream size : 77.2 MiB (11%)\nTitle : Mafiaking\nWriting library : LAME3.99r\nLanguage : Hindi\nDefault : Yes\nForced : No\n\nSAMPLE WITH IN TORRENT\n\nThanks to Mafiaking &amp; Team TNT!!\n\nSeed n Enjoy!!","torrent":{"xt":"urn:btih:b2cc1a417a3390cf4a9b568dc4cda402388dd60a","amp;dn":"Rang+Rasiya+%282014%29+-+1CD+-+PreDVD-Rip+-+Hindi+-+x264+-+MP3+-+Maf","amp;tr":["udp%3A%2F%2Ftracker.openbittorrent.com%3A80","udp%3A%2F%2Fopen.demonii.com%3A1337","udp%3A%2F%2Ftracker.coppersurfer.tk%3A6969","udp%3A%2F%2Fexodus.desync.com%3A6969"],"infoHash":"b2cc1a417a3390cf4a9b568dc4cda402388dd60a","infoHashBuffer":{"type":"Buffer","data":[178,204,26,65,122,51,144,207,74,155,86,141,196,205,164,2,56,141,214,10]},"announce":[],"urlList":[]}}